<svg xmlns="http://www.w3.org/2000/svg" viewBox="0 0 32 32">
<g fill="#000000">
<path d="M16+0.719688C7.3467+0.719688+0.333042+7.73334+0.333042+16.3866C0.333042+23.3064+4.8186+29.1788+11.0449+31.2518C11.8323+31.3963+12.114+30.9123+12.114+30.5006C12.114+30.125+12.1067+29.1427+12.0923+27.8353C7.73674+28.7815+6.81941+25.7334+6.81941+25.7334C6.10432+23.9204+5.07863+23.4436+5.07863+23.4436C3.65568+22.4685+5.18698+22.4902+5.18698+22.4902C6.76162+22.5985+7.58506+24.1009+7.58506+24.1009C8.98634+26.499+11.2544+25.8056+12.1429+25.4011C12.2873+24.3899+12.6918+23.7037+13.1396+23.3136C9.6581+22.9164+6.00319+21.5729+6.00319+15.5704C6.00319+13.8586+6.61716+12.4573+7.61395+11.3666C7.45504+10.9693+6.92053+9.37299+7.77286+7.2205C7.77286+7.2205+9.08747+6.79434+12.0778+8.82403C13.3274+8.47732+14.6709+8.30397+16+8.29675C17.3291+8.30397+18.6726+8.47732+19.9222+8.82403C22.9125+6.79434+24.2271+7.2205+24.2271+7.2205C25.0795+9.37299+24.545+10.9693+24.386+11.3666C25.3901+12.4573+25.9968+13.8586+25.9968+15.5704C25.9968+21.5873+22.3275+22.9091+18.8387+23.2992C19.4021+23.7831+19.9005+24.7366+19.9005+26.2029C19.9005+28.2904+19.886+29.9806+19.886+30.5006C19.886+30.9196+20.1677+31.4035+20.9623+31.2518C27.1814+29.1716+31.667+23.3064+31.667+16.3866C31.667+7.73334+24.6533+0.719688+16+0.719688"/>
</g>
</svg>
